<svg xmlns="http://www.w3.org/2000/svg" xmlns:xlink="http://www.w3.org/1999/xlink" width="2000" zoomAndPan="magnify" viewBox="0 0 1500 1499.999933" height="2000" preserveAspectRatio="xMidYMid meet" version="1.0"><path fill="#bbc863" d="M 1500 0 L 1500 39.691406 L 1427.542969 112.15625 L 1500 184.605469 L 1500 226.261719 L 1455.53125 270.726562 L 1362.253906 177.449219 L 1335.457031 204.238281 L 1454.339844 323.128906 L 1491.058594 286.402344 L 1500 295.351562 L 1500 317.160156 L 1454.339844 362.8125 L 1295.761719 204.238281 L 1362.253906 137.746094 L 1455.53125 231.046875 L 1481.136719 205.433594 L 1387.859375 112.15625 Z M 1500 0 " fill-opacity="1" fill-rule="nonzero"/><path fill="#bbc863" d="M 1500 88.582031 L 1500 123.832031 L 1482.601562 106.433594 Z M 1500 88.582031 " fill-opacity="1" fill-rule="nonzero"/><path fill="#bbc863" d="M 1278.886719 240.960938 L 1427.542969 389.617188 L 1275.703125 541.453125 L 1255.851562 521.617188 L 1387.859375 389.617188 L 1259.039062 260.8125 Z M 1278.886719 240.960938 " fill-opacity="1" fill-rule="nonzero"/><path fill="#bbc863" d="M 1224.316406 275.691406 L 1339.816406 391.191406 L 1232.625 498.382812 L 1212.78125 478.53125 L 1300.132812 391.191406 L 1224.292969 315.359375 L 1197.628906 342.023438 L 1243.246094 387.636719 L 1223.40625 407.488281 L 1177.785156 361.859375 L 1152.046875 387.59375 L 1197.675781 433.222656 L 1177.828125 453.074219 L 1132.207031 407.445312 L 1106.476562 433.175781 L 1152.089844 478.808594 L 1132.253906 498.644531 L 1086.628906 453.03125 L 1059.960938 479.691406 L 1133.40625 553.132812 L 1181.242188 505.289062 L 1273.726562 597.773438 L 1321.566406 549.9375 L 1395.652344 624 L 1327.964844 691.6875 L 1273.746094 637.460938 L 1245.75 665.484375 L 1290.050781 709.777344 L 1270.207031 729.628906 L 1206.066406 665.484375 L 1253.902344 617.648438 L 1226.707031 590.453125 L 1178.871094 638.25 L 1133.429688 592.808594 L 1020.300781 479.675781 Z M 1206.871094 570.605469 L 1181.265625 544.996094 L 1153.265625 573 L 1178.871094 598.613281 Z M 1356 624 L 1321.628906 589.628906 L 1293.636719 617.625 L 1328.003906 651.988281 Z M 1356 624 " fill-opacity="1" fill-rule="nonzero"/><path fill="#bbc863" d="M 1444.824219 426.726562 L 1500 371.558594 L 1500 411.238281 L 1464.660156 446.578125 Z M 1444.824219 426.726562 " fill-opacity="1" fill-rule="nonzero"/><path fill="#bbc863" d="M 1344 527.550781 L 1408.5 463.058594 L 1456.679688 511.238281 L 1500 467.925781 L 1500 507.601562 L 1476.515625 531.074219 L 1500 554.558594 L 1500 594.246094 L 1408.5 502.746094 L 1383.683594 527.550781 L 1468.640625 612.511719 L 1448.804688 632.347656 Z M 1344 527.550781 " fill-opacity="1" fill-rule="nonzero"/><path fill="#31694e" d="M 786.683594 713.316406 L 993.105469 506.910156 L 1061.578125 575.386719 L 992.699219 644.25 L 944.0625 595.613281 L 919.65625 620.023438 L 958.371094 658.734375 L 938.519531 678.585938 L 899.8125 639.871094 L 826.363281 713.300781 L 865.085938 752.023438 L 845.25 771.878906 Z M 1021.898438 575.386719 L 993.105469 546.59375 L 963.90625 575.789062 L 992.699219 604.582031 Z M 1021.898438 575.386719 " fill-opacity="1" fill-rule="nonzero"/><path fill="#31694e" d="M 1083.636719 602.933594 L 1103.476562 622.785156 L 1001.691406 724.566406 L 981.839844 704.730469 Z M 1083.636719 602.933594 " fill-opacity="1" fill-rule="nonzero"/><path fill="#31694e" d="M 1062.953125 714.515625 L 1131.832031 645.644531 L 1198.710938 712.5 L 1129.84375 781.378906 Z M 1131.832031 685.335938 L 1102.636719 714.515625 L 1129.84375 741.75 L 1159.019531 712.550781 Z M 1131.832031 685.335938 " fill-opacity="1" fill-rule="nonzero"/><path fill="#bbc863" d="M 1500 653.804688 L 1500 693.480469 L 1459.875 733.605469 L 1440.039062 713.765625 Z M 1500 653.804688 " fill-opacity="1" fill-rule="nonzero"/><path fill="#bbc863" d="M 1406.550781 654.757812 L 1426.394531 674.609375 L 1330.710938 770.292969 L 1310.871094 750.441406 Z M 1406.550781 654.757812 " fill-opacity="1" fill-rule="nonzero"/><path fill="#31694e" d="M 903.398438 689.273438 L 923.863281 709.734375 L 903.398438 730.199219 L 882.9375 709.734375 Z M 903.398438 689.273438 " fill-opacity="1" fill-rule="nonzero"/><path fill="#31694e" d="M 948.839844 734.722656 L 969.316406 755.175781 L 948.839844 775.648438 L 928.386719 755.175781 Z M 948.839844 734.722656 " fill-opacity="1" fill-rule="nonzero"/><path fill="#31694e" d="M 761.085938 738.929688 L 829.566406 807.40625 L 765.816406 871.148438 L 745.972656 851.292969 L 789.878906 807.40625 L 761.085938 778.613281 L 717.179688 822.503906 L 697.34375 802.671875 Z M 761.085938 738.929688 " fill-opacity="1" fill-rule="nonzero"/><path fill="#31694e" d="M 1037.25 740.25 L 1235.300781 938.339844 L 1215.457031 958.183594 L 1084.261719 826.988281 L 1057.589844 853.65625 L 1152.90625 948.96875 L 1133.070312 968.820312 L 970.867188 806.609375 Z M 1064.445312 807.136719 L 1037.25 779.949219 L 1010.585938 806.609375 L 1037.78125 833.804688 Z M 1064.445312 807.136719 " fill-opacity="1" fill-rule="nonzero"/><path fill="#bbc863" d="M 1410.53125 743.273438 L 1430.371094 763.109375 L 1386.878906 806.609375 L 1500 919.730469 L 1500 959.414062 L 1347.195312 806.609375 Z M 1410.53125 743.273438 " fill-opacity="1" fill-rule="nonzero"/><path fill="#bbc863" d="M 1233.441406 747.246094 L 1472.234375 986.046875 L 1452.398438 1005.898438 L 1413.578125 967.074219 L 1384.386719 996.261719 L 1423.199219 1035.074219 L 1403.363281 1054.925781 L 1344.699219 996.261719 L 1393.734375 947.234375 L 1367.632812 921.136719 L 1328.519531 960.246094 L 1308.683594 940.402344 L 1347.796875 901.296875 L 1273.753906 827.25 L 1224.71875 876.285156 L 1164.5625 816.128906 L 1184.414062 796.289062 L 1224.71875 836.59375 L 1253.902344 807.40625 L 1213.597656 767.09375 Z M 1233.441406 747.246094 " fill-opacity="1" fill-rule="nonzero"/><path fill="#bbc863" d="M 1500 749.078125 L 1500 768.058594 L 1490.503906 758.566406 Z M 1500 749.078125 " fill-opacity="1" fill-rule="nonzero"/><path fill="#31694e" d="M 899.8125 786.765625 L 955.183594 842.136719 L 935.339844 861.976562 L 899.8125 826.449219 L 874.207031 852.058594 L 967.140625 944.976562 L 947.296875 964.828125 L 834.515625 852.058594 Z M 899.8125 786.765625 " fill-opacity="1" fill-rule="nonzero"/><path fill="#bbc863" d="M 1434.007812 807.667969 L 1454.476562 787.207031 L 1474.933594 807.667969 L 1454.476562 828.136719 Z M 1434.007812 807.667969 " fill-opacity="1" fill-rule="nonzero"/><path fill="#bbc863" d="M 1499.917969 832.65625 L 1500 832.730469 L 1500 873.503906 L 1499.917969 873.585938 L 1479.464844 853.117188 Z M 1499.917969 832.65625 " fill-opacity="1" fill-rule="nonzero"/><path fill="#31694e" d="M 712.664062 918.332031 L 654.214844 859.84375 L 674.066406 840.003906 L 732.515625 898.496094 Z M 712.664062 918.332031 " fill-opacity="1" fill-rule="nonzero"/><path fill="#bbc863" d="M 1253.421875 894.976562 L 1273.890625 874.515625 L 1294.351562 894.976562 L 1273.890625 915.441406 Z M 1253.421875 894.976562 " fill-opacity="1" fill-rule="nonzero"/><path fill="#31694e" d="M 806.65625 879.914062 L 868.011719 941.265625 L 848.160156 961.109375 L 806.65625 919.605469 L 780.128906 946.140625 L 821.632812 987.644531 L 801.789062 1007.480469 L 740.445312 946.140625 Z M 806.65625 879.914062 " fill-opacity="1" fill-rule="nonzero"/><path fill="#31694e" d="M 975.023438 900.683594 L 995.496094 880.230469 L 1015.949219 900.683594 L 995.496094 921.15625 Z M 975.023438 900.683594 " fill-opacity="1" fill-rule="nonzero"/><path fill="#31694e" d="M 518.347656 981.652344 L 616.949219 883.066406 L 636.78125 902.902344 L 538.191406 1001.503906 Z M 518.347656 981.652344 " fill-opacity="1" fill-rule="nonzero"/><path fill="#31694e" d="M 1040.941406 925.671875 L 1061.398438 946.140625 L 1040.941406 966.601562 L 1020.472656 946.140625 Z M 1040.941406 925.671875 " fill-opacity="1" fill-rule="nonzero"/><path fill="#31694e" d="M 557.054688 1040.210938 L 660.261719 937.011719 L 680.113281 956.851562 L 596.738281 1040.210938 L 619.425781 1062.90625 L 702.789062 979.53125 L 718.035156 964.304688 L 791.429688 1037.699219 L 732.203125 1096.914062 L 712.351562 1077.074219 L 751.734375 1037.699219 L 718.035156 1003.988281 L 639.269531 1082.738281 L 685.6875 1129.164062 L 665.851562 1149.015625 Z M 557.054688 1040.210938 " fill-opacity="1" fill-rule="nonzero"/><path fill="#658c58" d="M 1183.65625 970.140625 L 1231.296875 1017.75 L 1273.011719 976.027344 L 1384.761719 1087.777344 L 1097.902344 1374.652344 L 1078.050781 1354.800781 L 1345.050781 1087.800781 L 1272.996094 1015.800781 L 1251.128906 1037.683594 L 1297.066406 1083.621094 L 948.75 1431.914062 L 892.882812 1376.039062 L 912.75 1356.195312 L 948.75 1392.195312 L 976.738281 1364.25 L 940.738281 1328.25 L 960.585938 1308.40625 L 996.585938 1344.40625 L 1022.183594 1318.816406 L 986.183594 1282.816406 L 1006.035156 1262.960938 L 1042.035156 1298.960938 L 1067.640625 1273.363281 L 1031.640625 1237.363281 L 1051.484375 1217.527344 L 1087.484375 1253.527344 L 1113.089844 1227.914062 L 1067.136719 1181.976562 L 1135.628906 1113.503906 L 1181.574219 1159.441406 L 1257.40625 1083.605469 L 1231.304688 1057.507812 L 1177.5 1111.289062 L 1110 1043.789062 Z M 1211.40625 1037.640625 L 1183.65625 1009.84375 L 1149.683594 1043.820312 L 1177.433594 1071.613281 Z M 1135.582031 1153.140625 L 1106.78125 1181.933594 L 1132.882812 1208.03125 L 1161.75 1179.253906 Z M 1135.582031 1153.140625 " fill-opacity="1" fill-rule="nonzero"/><path fill="#31694e" d="M 1086.382812 971.113281 L 1106.84375 991.589844 L 1086.382812 1012.042969 L 1065.914062 991.589844 Z M 1086.382812 971.113281 " fill-opacity="1" fill-rule="nonzero"/><path fill="#31694e" d="M 994.6875 971.917969 L 1015.164062 992.378906 L 994.6875 1012.851562 L 974.234375 992.378906 Z M 994.6875 971.917969 " fill-opacity="1" fill-rule="nonzero"/><path fill="#31694e" d="M 843.285156 1048.988281 L 905.835938 986.453125 L 925.679688 1006.289062 L 882.980469 1048.988281 L 905.398438 1071.398438 L 958.011719 1018.777344 L 1020.113281 1080.878906 L 947.648438 1153.34375 Z M 980.429688 1080.878906 L 958.011719 1058.46875 L 925.238281 1091.25 L 947.648438 1113.660156 Z M 980.429688 1080.878906 " fill-opacity="1" fill-rule="nonzero"/><path fill="#31694e" d="M 1040.136719 1017.367188 L 1060.605469 1037.828125 L 1040.136719 1058.292969 L 1019.675781 1037.828125 Z M 1040.136719 1017.367188 " fill-opacity="1" fill-rule="nonzero"/><path fill="#31694e" d="M 471.253906 1042.746094 L 491.722656 1022.289062 L 512.183594 1042.746094 L 491.722656 1063.214844 Z M 471.253906 1042.746094 " fill-opacity="1" fill-rule="nonzero"/><path fill="#bbc863" d="M 1500 1034.03125 L 1500 1053.503906 L 1490.265625 1043.765625 Z M 1500 1034.03125 " fill-opacity="1" fill-rule="nonzero"/><path fill="#31694e" d="M 1085.578125 1062.808594 L 1106.046875 1083.269531 L 1085.578125 1103.738281 L 1065.121094 1083.269531 Z M 1085.578125 1062.808594 " fill-opacity="1" fill-rule="nonzero"/><path fill="#658c58" d="M 1451.152344 1063.027344 L 1500 1111.875 L 1500 1151.566406 L 1451.152344 1102.71875 L 1425.417969 1128.449219 L 1500 1203 L 1500 1242.75 L 1405.566406 1148.324219 L 1382.101562 1171.808594 L 1479.75 1269.441406 L 1417.605469 1331.59375 L 1397.773438 1311.75 L 1440.074219 1269.441406 L 1413.285156 1242.652344 L 1361.054688 1294.875 L 1290.1875 1224 Z M 1393.402344 1222.777344 L 1362.21875 1191.601562 L 1329.878906 1224 L 1361.054688 1255.183594 Z M 1393.402344 1222.777344 " fill-opacity="1" fill-rule="nonzero"/><path fill="#31694e" d="M 430.851562 1063.296875 L 492.351562 1124.796875 L 472.5 1144.621094 L 430.859375 1102.980469 L 362.609375 1171.230469 L 394.320312 1202.953125 L 436.5 1160.789062 L 456.335938 1180.628906 L 394.335938 1242.652344 L 342.75 1191.089844 L 314.152344 1219.6875 L 355.792969 1261.3125 L 335.949219 1281.164062 L 294.316406 1239.523438 L 271.695312 1262.144531 L 323.25 1313.699219 L 275.941406 1360.996094 L 209.339844 1427.625 L 147.839844 1366.125 L 167.675781 1346.273438 L 209.316406 1387.917969 L 236.25 1360.996094 L 184.6875 1309.449219 Z M 283.574219 1313.699219 L 251.863281 1281.980469 L 224.398438 1309.449219 L 256.117188 1341.15625 Z M 283.574219 1313.699219 " fill-opacity="1" fill-rule="nonzero"/><path fill="#31694e" d="M 533.054688 1063.605469 L 553.515625 1084.074219 L 533.054688 1104.53125 L 512.585938 1084.074219 Z M 533.054688 1063.605469 " fill-opacity="1" fill-rule="nonzero"/><path fill="#31694e" d="M 817.246094 1074.15625 L 922.050781 1178.953125 L 856.753906 1244.25 L 761.878906 1149.359375 L 733.882812 1177.355469 L 855.15625 1298.632812 L 938.519531 1215.269531 L 958.371094 1235.121094 L 855.15625 1338.324219 L 694.191406 1177.355469 L 761.878906 1109.667969 L 856.753906 1204.542969 L 882.367188 1178.953125 L 797.40625 1093.996094 Z M 817.246094 1074.15625 " fill-opacity="1" fill-rule="nonzero"/><path fill="#31694e" d="M 1017.414062 1130.976562 L 1037.878906 1110.523438 L 1058.339844 1130.976562 L 1037.878906 1151.453125 Z M 1017.414062 1130.976562 " fill-opacity="1" fill-rule="nonzero"/><path fill="#658c58" d="M 567.75 1118.796875 L 587.585938 1138.640625 L 410.378906 1315.890625 L 436.777344 1342.289062 L 485.476562 1293.59375 L 531.75 1339.828125 L 541.671875 1349.761719 L 691.882812 1500 L 652.199219 1500 L 531.75 1379.527344 L 483 1428.226562 L 370.6875 1315.890625 Z M 511.875 1359.675781 L 485.476562 1333.273438 L 456.621094 1362.136719 L 483 1388.535156 Z M 511.875 1359.675781 " fill-opacity="1" fill-rule="nonzero"/><path fill="#658c58" d="M 623.949219 1155.113281 L 738.210938 1269.398438 L 620.039062 1387.566406 L 552 1319.542969 L 626.59375 1244.949219 L 674.773438 1293.128906 L 698.519531 1269.398438 L 623.941406 1194.816406 L 535.5 1283.25 L 515.65625 1263.40625 Z M 654.945312 1312.980469 L 626.601562 1284.636719 L 591.699219 1319.542969 L 620.039062 1347.886719 Z M 654.945312 1312.980469 " fill-opacity="1" fill-rule="nonzero"/><path fill="#31694e" d="M 990.171875 1158.21875 L 1010.640625 1178.683594 L 990.171875 1199.144531 L 969.710938 1178.683594 Z M 990.171875 1158.21875 " fill-opacity="1" fill-rule="nonzero"/><path fill="#658c58" d="M 1268.167969 1246.019531 L 1420.019531 1397.855469 L 1400.167969 1417.710938 L 1319.167969 1336.710938 L 1295.167969 1360.710938 L 1376.167969 1441.710938 L 1356.328125 1461.5625 L 1204.5 1309.71875 Z M 1299.359375 1316.886719 L 1268.167969 1285.703125 L 1244.167969 1309.703125 L 1275.351562 1340.878906 Z M 1299.359375 1316.886719 " fill-opacity="1" fill-rule="nonzero"/><path fill="#658c58" d="M 1500 1298.023438 L 1500 1337.714844 L 1461.878906 1375.84375 L 1442.023438 1356 Z M 1500 1298.023438 " fill-opacity="1" fill-rule="nonzero"/><path fill="#658c58" d="M 771.796875 1302.980469 L 831.148438 1362.328125 L 712.972656 1480.5 L 643.703125 1411.230469 L 712.703125 1342.230469 L 762.136719 1391.664062 L 791.453125 1362.34375 L 751.949219 1322.835938 Z M 742.289062 1411.5 L 712.710938 1381.914062 L 683.390625 1411.238281 L 712.972656 1440.816406 Z M 742.289062 1411.5 " fill-opacity="1" fill-rule="nonzero"/><path fill="#658c58" d="M 350.4375 1345.09375 L 370.890625 1365.5625 L 350.4375 1386.023438 L 329.960938 1365.5625 Z M 350.4375 1345.09375 " fill-opacity="1" fill-rule="nonzero"/><path fill="#658c58" d="M 1184.804688 1349.21875 L 1326.726562 1491.140625 L 1317.863281 1500 L 1295.902344 1500 L 1164.96875 1369.066406 Z M 1184.804688 1349.21875 " fill-opacity="1" fill-rule="nonzero"/><path fill="#31694e" d="M 0 1500 L 118.71875 1381.296875 L 187.191406 1449.75 L 136.941406 1500 L 98.601562 1500 L 69.140625 1470.539062 L 39.691406 1500 Z M 147.511719 1449.75 L 118.71875 1420.957031 L 88.996094 1450.703125 L 117.789062 1479.496094 Z M 147.511719 1449.75 " fill-opacity="1" fill-rule="nonzero"/><path fill="#658c58" d="M 1128.636719 1385.550781 L 1243.09375 1500 L 1203.414062 1500 L 1128.636719 1425.230469 L 1103.566406 1450.304688 L 1153.265625 1500 L 1113.578125 1500 L 1063.882812 1450.304688 Z M 1128.636719 1385.550781 " fill-opacity="1" fill-rule="nonzero"/><path fill="#658c58" d="M 300.757812 1385.8125 L 365.4375 1450.476562 L 345.601562 1470.324219 L 300.757812 1425.503906 L 273.832031 1452.425781 L 321.40625 1500 L 281.714844 1500 L 234.140625 1452.425781 Z M 300.757812 1385.8125 " fill-opacity="1" fill-rule="nonzero"/><path fill="#658c58" d="M 1045.988281 1386.246094 L 1066.453125 1406.714844 L 1045.988281 1427.175781 L 1025.527344 1406.714844 Z M 1045.988281 1386.246094 " fill-opacity="1" fill-rule="nonzero"/><path fill="#658c58" d="M 391.890625 1386.546875 L 412.363281 1407.015625 L 391.890625 1427.476562 L 371.421875 1407.015625 Z M 391.890625 1386.546875 " fill-opacity="1" fill-rule="nonzero"/><path fill="#658c58" d="M 749.078125 1500 L 858.953125 1390.132812 L 960.765625 1491.945312 L 952.703125 1500 L 929.144531 1500 L 858.953125 1429.824219 L 788.761719 1500 Z M 749.078125 1500 " fill-opacity="1" fill-rule="nonzero"/><path fill="#658c58" d="M 1500 1392.636719 L 1500 1433.8125 L 1479.414062 1413.226562 Z M 1500 1392.636719 " fill-opacity="1" fill-rule="nonzero"/><path fill="#658c58" d="M 998.28125 1433.953125 L 1018.746094 1454.414062 L 998.28125 1474.890625 L 977.820312 1454.414062 Z M 998.28125 1433.953125 " fill-opacity="1" fill-rule="nonzero"/><path fill="#658c58" d="M 1457.65625 1435.507812 L 1500 1477.835938 L 1500 1500 L 1482.472656 1500 L 1457.65625 1475.199219 L 1432.867188 1500 L 1393.171875 1500 Z M 1457.65625 1435.507812 " fill-opacity="1" fill-rule="nonzero"/><path fill="#658c58" d="M 431.175781 1440.382812 L 451.011719 1460.21875 L 411.238281 1500 L 371.558594 1500 Z M 431.175781 1440.382812 " fill-opacity="1" fill-rule="nonzero"/><path fill="#658c58" d="M 524.984375 1443.832031 L 544.835938 1463.675781 L 508.515625 1500 L 468.832031 1500 Z M 524.984375 1443.832031 " fill-opacity="1" fill-rule="nonzero"/><path fill="#658c58" d="M 581.152344 1480.164062 L 600.988281 1500 L 561.316406 1500 Z M 581.152344 1480.164062 " fill-opacity="1" fill-rule="nonzero"/><path fill="#658c58" d="M 859.449219 1481.519531 L 877.925781 1500 L 840.96875 1500 Z M 859.449219 1481.519531 " fill-opacity="1" fill-rule="nonzero"/><path fill="#658c58" d="M 195.515625 1500 L 209.675781 1485.855469 L 223.824219 1500 Z M 195.515625 1500 " fill-opacity="1" fill-rule="nonzero"/><path fill="#658c58" d="M 1034.015625 1500 L 1046.601562 1487.421875 L 1059.179688 1500 Z M 1034.015625 1500 " fill-opacity="1" fill-rule="nonzero"/></svg>