<svg xmlns="http://www.w3.org/2000/svg" version="1.1" xmlns:xlink="http://www.w3.org/1999/xlink" xmlns:svgjs="http://svgjs.dev/svgjs" width="1440" height="560" preserveAspectRatio="none" viewBox="0 0 1440 560"><g mask="url(&quot;#SvgjsMask1908&quot;)" fill="none"><rect width="1440" height="560" x="0" y="0" fill="#0e2a47"></rect><path d="M0 0L487.07 0L0 218.39z" fill="rgba(255, 255, 255, .1)"></path><path d="M0 218.39L487.07 0L647.9 0L0 379.59z" fill="rgba(255, 255, 255, .075)"></path><path d="M0 379.59L647.9 0L860.8399999999999 0L0 452.79999999999995z" fill="rgba(255, 255, 255, .05)"></path><path d="M0 452.79999999999995L860.8399999999999 0L1178.6599999999999 0L0 487.84999999999997z" fill="rgba(255, 255, 255, .025)"></path><path d="M1440 560L891.52 560L1440 303.02z" fill="rgba(0, 0, 0, .1)"></path><path d="M1440 303.02L891.52 560L797.54 560L1440 214.26z" fill="rgba(0, 0, 0, .075)"></path><path d="M1440 214.26L797.54 560L713.13 560L1440 126.21999999999998z" fill="rgba(0, 0, 0, .05)"></path><path d="M1440 126.21999999999997L713.13 560L258.42 560L1440 75.09999999999997z" fill="rgba(0, 0, 0, .025)"></path></g><defs><mask id="SvgjsMask1908"><rect width="1440" height="560" fill="#ffffff"></rect></mask></defs></svg>