<svg xmlns="http://www.w3.org/2000/svg" version="1.1" xmlns:xlink="http://www.w3.org/1999/xlink" xmlns:svgjs="http://svgjs.dev/svgjs" width="1440" height="560" preserveAspectRatio="none" viewBox="0 0 1440 560"><g mask="url(&quot;#SvgjsMask1085&quot;)" fill="none"><rect width="1440" height="560" x="0" y="0" fill="rgba(6, 45, 23, 1)"></rect><path d="M0,483.921C109.445,490.356,230.967,562.122,321.801,500.732C412.931,439.142,395.317,300.378,427.291,195.137C454.489,105.614,502.293,22.069,495.578,-71.253C488.585,-168.437,462.033,-272.577,388.993,-337.065C317.957,-399.784,207.679,-371.619,118.642,-404.057C20.812,-439.698,-54.493,-551.832,-157.423,-536.135C-259.565,-520.558,-320.749,-413.699,-378.764,-328.201C-431.704,-250.182,-467.578,-162.28,-474.89,-68.279C-481.898,21.819,-447.616,105.654,-419.183,191.434C-387.242,287.797,-381.624,406.179,-298.369,464.271C-214.939,522.485,-101.557,477.95,0,483.921" fill="#052211"></path><path d="M1440 1141C1546.814 1147.7530000000002 1618.974 1032.116 1694.993 956.778 1757.541 894.79 1799.615 820.836 1841.317 743.275 1886.012 660.149 1969.365 578.851 1947.567 487.023 1925.571 394.36199999999997 1793.587 379.279 1736.768 302.849 1672.593 216.524 1693.099 70.49099999999999 1599.073 18.24599999999998 1507.049-32.88599999999997 1383.957 4.572000000000003 1291.915 55.670000000000016 1207.173 102.71499999999997 1188.159 213.69299999999998 1121.048 283.626 1048.617 359.103 922.554 382.672 884.572 480.142 845.17 581.257 857.649 708.906 920.99 797.024 982.9 883.152 1116.502 867.1990000000001 1204.917 925.796 1295.302 985.6990000000001 1331.783 1134.159 1440 1141" fill="#08381d"></path></g><defs><mask id="SvgjsMask1085"><rect width="1440" height="560" fill="#ffffff"></rect></mask></defs></svg>