<svg xmlns="http://www.w3.org/2000/svg" version="1.1" xmlns:xlink="http://www.w3.org/1999/xlink" xmlns:svgjs="http://svgjs.dev/svgjs" width="1440" height="560" preserveAspectRatio="none" viewBox="0 0 1440 560"><g mask="url(&quot;#SvgjsMask1019&quot;)" fill="none"><rect width="1440" height="560" x="0" y="0" fill="rgba(3, 44, 21, 1)"></rect><path d="M 0,178 C 96,154.4 288,67.8 480,60 C 672,52.2 768,133.6 960,139 C 1152,144.4 1344,97.4 1440,87L1440 560L0 560z" fill="rgba(31, 81, 53, 1)"></path><path d="M 0,203 C 57.6,219.6 172.8,285 288,286 C 403.2,287 460.8,192.8 576,208 C 691.2,223.2 748.8,359.8 864,362 C 979.2,364.2 1036.8,216.8 1152,219 C 1267.2,221.2 1382.4,342.2 1440,373L1440 560L0 560z" fill="rgba(11, 61, 33, 1)"></path><path d="M 0,546 C 96,527.2 288,453.6 480,452 C 672,450.4 768,537.8 960,538 C 1152,538.2 1344,470 1440,453L1440 560L0 560z" fill="rgba(6, 45, 23, 1)"></path></g><defs><mask id="SvgjsMask1019"><rect width="1440" height="560" fill="#ffffff"></rect></mask></defs></svg>