<svg xmlns="http://www.w3.org/2000/svg" version="1.1" xmlns:xlink="http://www.w3.org/1999/xlink" xmlns:svgjs="http://svgjs.dev/svgjs" width="1440" height="560" preserveAspectRatio="none" viewBox="0 0 1440 560"><g mask="url(&quot;#SvgjsMask1514&quot;)" fill="none"><rect width="1440" height="560" x="0" y="0" fill="url(&quot;#SvgjsLinearGradient1515&quot;)"></rect><path d="M1440 0L1236.62 0L1440 53.23z" fill="rgba(255, 255, 255, .1)"></path><path d="M1236.62 0L1440 53.23L1440 124.72L570.6199999999999 0z" fill="rgba(255, 255, 255, .075)"></path><path d="M570.62 0L1440 124.72L1440 326.01L341.71000000000004 0z" fill="rgba(255, 255, 255, .05)"></path><path d="M341.71000000000004 0L1440 326.01L1440 367.94L305.13000000000005 0z" fill="rgba(255, 255, 255, .025)"></path><path d="M0 560L209.69 560L0 355.62z" fill="rgba(0, 0, 0, .1)"></path><path d="M0 355.62L209.69 560L334.45 560L0 238.95z" fill="rgba(0, 0, 0, .075)"></path><path d="M0 238.95L334.45 560L509.38 560L0 232.23z" fill="rgba(0, 0, 0, .05)"></path><path d="M0 232.22999999999996L509.38 560L1040.98 560L0 89.72999999999996z" fill="rgba(0, 0, 0, .025)"></path></g><defs><mask id="SvgjsMask1514"><rect width="1440" height="560" fill="#ffffff"></rect></mask><linearGradient x1="84.72%" y1="-39.29%" x2="15.28%" y2="139.29%" gradientUnits="userSpaceOnUse" id="SvgjsLinearGradient1515"><stop stop-color="#0e2a47" offset="0"></stop><stop stop-color="rgba(18, 94, 7, 1)" offset="1"></stop></linearGradient></defs></svg>